HIERARCHY
ROOT hip
{
  OFFSET 0 0 0
  CHANNELS 6 Xposition Yposition Zposition Zrotation Yrotation Xrotation
  JOINT abdomen
  {
    OFFSET 0 20.6881 -0.73152
    CHANNELS 3 Zrotation Xrotation Yrotation
    JOINT chest
    {
      OFFSET 0 11.7043 -0.48768
      CHANNELS 3 Zrotation Xrotation Yrotation
      JOINT neck
      {
        OFFSET 0 22.1894 -2.19456
        CHANNELS 3 Zrotation Xrotation Yrotation
        JOINT head
        {
          OFFSET -0.24384 7.07133 1.2192
          CHANNELS 3 Zrotation Xrotation Yrotation
          JOINT leftEye
          {
            OFFSET 4.14528 8.04674 8.04672
            CHANNELS 3 Zrotation Xrotation Yrotation
            End Site
            {
              OFFSET 1 0 0
            }
          }
          JOINT rightEye
          {
            OFFSET -3.6576 8.04674 8.04672
            CHANNELS 3 Zrotation Xrotation Yrotation
            End Site
            {
              OFFSET 1 0 0
            }
          }
        }
      }
      JOINT rCollar
      {
        OFFSET -2.68224 19.2634 -4.8768
        CHANNELS 3 Zrotation Xrotation Yrotation
        JOINT rShldr
        {
          OFFSET -8.77824 -1.95073 1.46304
          CHANNELS 3 Zrotation Xrotation Yrotation
          JOINT rForeArm
          {
            OFFSET -28.1742 -1.7115 0.48768
            CHANNELS 3 Zrotation Xrotation Yrotation
            JOINT rHand
            {
              OFFSET -22.5879 0.773209 7.07136
              CHANNELS 3 Zrotation Xrotation Yrotation
              JOINT rThumb1
              {
                OFFSET -1.2192 -0.487915 3.41376
                CHANNELS 3 Zrotation Xrotation Yrotation
                JOINT rThumb2
                {
                  OFFSET -3.37035 -0.52449 3.41376
                  CHANNELS 3 Zrotation Xrotation Yrotation
                  End Site
                  {
                    OFFSET -1.78271 -1.18214 1.43049
                  }
                }
              }
              JOINT rIndex1
              {
                OFFSET -7.75947 0.938293 5.60832
                CHANNELS 3 Zrotation Xrotation Yrotation
                JOINT rIndex2
                {
                  OFFSET -2.54057 -0.884171 1.56538
                  CHANNELS 3 Zrotation Xrotation Yrotation
                  End Site
                  {
                    OFFSET -1.62519 -0.234802 1.16502
                  }
                }
              }
              JOINT rMid1
              {
                OFFSET -8.24714 1.18213 3.41376
                CHANNELS 3 Zrotation Xrotation Yrotation
                JOINT rMid2
                {
                  OFFSET -3.10165 -0.590103 1.0647
                  CHANNELS 3 Zrotation Xrotation Yrotation
                  End Site
                  {
                    OFFSET -2.48547 -0.328903 0.83742
                  }
                }
              }
              JOINT rRing1
              {
                OFFSET -8.82822 0.546677 1.51678
                CHANNELS 3 Zrotation Xrotation Yrotation
                JOINT rRing2
                {
                  OFFSET -2.60934 -0.819778 -0.0198488
                  CHANNELS 3 Zrotation Xrotation Yrotation
                  End Site
                  {
                    OFFSET -2.33842 -0.294052 0.168128
                  }
                }
              }
              JOINT rPinky1
              {
                OFFSET -8.27202 -0.0477905 -0.4584
                CHANNELS 3 Zrotation Xrotation Yrotation
                JOINT rPinky2
                {
                  OFFSET -1.82734 -0.647385 -0.700984
                  CHANNELS 3 Zrotation Xrotation Yrotation
                  End Site
                  {
                    OFFSET -1.69225 -0.51767 -0.607171
                  }
                }
              }
            }
          }
        }
      }
      JOINT lCollar
      {
        OFFSET 2.68224 19.2634 -4.8768
        CHANNELS 3 Zrotation Xrotation Yrotation
        JOINT lShldr
        {
          OFFSET 8.77824 -1.95073 1.46304
          CHANNELS 3 Zrotation Xrotation Yrotation
          JOINT lForeArm
          {
            OFFSET 28.1742 -1.7115 0.48768
            CHANNELS 3 Zrotation Xrotation Yrotation
            JOINT lHand
            {
              OFFSET 22.5879 0.773209 7.07136
              CHANNELS 3 Zrotation Xrotation Yrotation
              JOINT lThumb1
              {
                OFFSET 1.2192 -0.487915 3.41376
                CHANNELS 3 Zrotation Xrotation Yrotation
                JOINT lThumb2
                {
                  OFFSET 3.37035 -0.52449 3.41376
                  CHANNELS 3 Zrotation Xrotation Yrotation
                  End Site
                  {
                    OFFSET 1.78271 -1.18214 1.43049
                  }
                }
              }
              JOINT lIndex1
              {
                OFFSET 7.75947 0.938293 5.60832
                CHANNELS 3 Zrotation Xrotation Yrotation
                JOINT lIndex2
                {
                  OFFSET 2.54057 -0.884171 1.56538
                  CHANNELS 3 Zrotation Xrotation Yrotation
                  End Site
                  {
                    OFFSET 1.62519 -0.234802 1.16502
                  }
                }
              }
              JOINT lMid1
              {
                OFFSET 8.24714 1.18213 3.41376
                CHANNELS 3 Zrotation Xrotation Yrotation
                JOINT lMid2
                {
                  OFFSET 3.10165 -0.590103 1.0647
                  CHANNELS 3 Zrotation Xrotation Yrotation
                  End Site
                  {
                    OFFSET 2.48547 -0.328903 0.83742
                  }
                }
              }
              JOINT lRing1
              {
                OFFSET 8.82822 0.546677 1.51678
                CHANNELS 3 Zrotation Xrotation Yrotation
                JOINT lRing2
                {
                  OFFSET 2.60934 -0.819778 -0.0198488
                  CHANNELS 3 Zrotation Xrotation Yrotation
                  End Site
                  {
                    OFFSET 2.33842 -0.294052 0.168128
                  }
                }
              }
              JOINT lPinky1
              {
                OFFSET 8.27202 -0.0477905 -0.4584
                CHANNELS 3 Zrotation Xrotation Yrotation
                JOINT lPinky2
                {
                  OFFSET 1.82734 -0.647385 -0.700984
                  CHANNELS 3 Zrotation Xrotation Yrotation
                  End Site
                  {
                    OFFSET 1.69225 -0.51767 -0.607171
                  }
                }
              }
            }
          }
        }
      }
    }
  }
  JOINT rButtock
  {
    OFFSET -8.77824 4.35084 1.2192
    CHANNELS 3 Zrotation Xrotation Yrotation
    JOINT rThigh
    {
      OFFSET 0 -1.70687 -2.19456
      CHANNELS 3 Zrotation Xrotation Yrotation
      JOINT rShin
      {
        OFFSET 0 -36.8199 0.73152
        CHANNELS 3 Zrotation Xrotation Yrotation
        JOINT rFoot
        {
          OFFSET 0.73152 -45.1104 -5.12064
          CHANNELS 3 Zrotation Xrotation Yrotation
          End Site
          {
            OFFSET -1.1221 -3.69964 12.103
          }
        }
      }
    }
  }
  JOINT lButtock
  {
    OFFSET 8.77824 4.35084 1.2192
    CHANNELS 3 Zrotation Xrotation Yrotation
    JOINT lThigh
    {
      OFFSET 0 -1.70687 -2.19456
      CHANNELS 3 Zrotation Xrotation Yrotation
      JOINT lShin
      {
        OFFSET 0 -36.8199 0.73152
        CHANNELS 3 Zrotation Xrotation Yrotation
        JOINT lFoot
        {
          OFFSET -0.73152 -45.1104 -5.12064
          CHANNELS 3 Zrotation Xrotation Yrotation
          End Site
          {
            OFFSET 1.1221 -3.69964 12.103
          }
        }
      }
    }
  }
}
MOTION
Frames:	5
Frame Time:	0.03333
-14.044200000000002 51.105900000000005 31.3519 -159.401476 -40.531316 171.795639 9.01217 4.792342 104.822252 -4.557457 -5.804522 -102.097631 -5.040997 12.340509 4.791197 11.955524 -21.487804 17.972537 -13.610217 0.792509 -6.633829 4.445618 0.170426 4.388603 -157.466266 -19.214324 162.205947 106.838016 -35.209983 142.782913 -30.544769 -48.941352 85.592385 -6.644604 -51.680837 -8.53276 143.025452 -45.012294 71.107547 -24.731687 -43.589673 -28.051188 -10.104729 9.26323 4.358648 -153.588733 -11.825639 111.236241 -0.21119 3.807887 2.030335 -155.612615 20.20263 150.530339 -146.782215 -20.450697 -166.391814 -148.814497 -38.937193 -175.536259 -148.705534 16.266343 -141.731041 -5.41882 -31.644395 -18.039851 49.721623 66.925738 -55.182263 82.428771 35.249262 -67.692074 -2.789572 -11.889469 61.329825 -125.893615 -51.60631 -121.651775 166.009048 -3.628274 -92.652972 -0.54135 -50.125649 -5.391165 41.880069 34.672905 -30.433482 160.163945 -31.163387 -109.643736 -10.522483 -29.385765 -1.5671 6.764708 -10.597207 14.581125 0.269495 2.982605 -1.251761 147.436002 -50.336338 174.511872 5.010673 15.702045 1.850094 -18.022174 5.849354 6.380499 106.597532 57.396191 51.335244 -153.249819 79.538428 40.309734 35.512581 21.606071 27.214163 -6.119333 81.665035 -86.871241 -0.547705 -7.856217 0.000627 73.583274 -49.814722 106.070233 79.34532 47.937029 -167.86911 151.824271 -17.34397 -97.451149
-14.224700000000002 50.96469999999999 31.7237 -159.424314 -40.494647 171.811777 10.090728 3.70229 147.496744 -5.731863 -1.603004 -145.171973 6.771524 21.903784 97.621706 -30.131738 2.661859 -76.433563 -14.95441 0.889993 -6.773254 3.11422 0.127531 4.688888 11.405784 -83.036198 -9.942889 -43.889951 -5.665372 -39.451026 -178.958912 25.133601 -70.445888 -13.21898 -21.914315 -3.002561 0.863719 5.211943 0.758803 -117.018286 -13.734865 105.671375 -145.402012 -0.710106 116.799158 -4.874054 14.437667 -2.688753 -103.305726 57.707948 95.621249 -162.381173 -28.892106 140.324706 -147.016902 -14.53577 -167.944049 -149.509627 -30.38719 -177.279017 -33.842525 -41.161395 -31.613731 -153.678165 54.208582 -164.708017 132.585824 51.592033 -139.658494 -135.294022 -35.023959 -161.178282 -15.046471 -22.287189 -32.780311 16.198372 76.638702 -12.328421 -159.326237 -36.604448 -85.340423 138.078433 15.375346 -84.829154 126.920157 20.411139 -102.689321 -63.387593 -44.916256 -22.570769 173.62031 -33.946832 -140.36472 -13.929368 -25.125923 -16.664179 -0.526758 4.391011 -1.314803 -11.655099 -0.975002 3.982971 133.091292 -25.702472 115.591623 148.471133 -18.368346 131.258028 -166.07338 76.509607 -4.460998 98.001832 64.714814 -7.921388 -49.017843 7.074514 -87.401551 96.808855 -20.759909 179.319442 0.843078 -8.081705 0.947633 72.799227 -50.951141 165.87425 86.453492 -11.333006 160.326897 -27.148556 80.56826 105.723249
-14.549699999999998 50.7173 31.9417 -159.573426 -41.121579 171.540425 8.372188 5.199238 106.475589 -4.90731 -5.742891 -104.506617 -10.888085 29.975176 -126.235443 21.401486 37.720668 144.020765 -13.620983 1.075924 -8.990713 -1.996528 -0.199514 11.412186 -165.22696 -67.920297 166.158668 142.889787 -28.807774 -164.756504 12.691646 -45.621102 117.441096 -13.540384 -18.843921 -2.162449 -142.798406 13.781147 86.780549 -165.26991 -10.027545 79.632416 -158.4388 -24.320386 121.43968 6.185147 -0.186601 -8.029141 -4.710269 14.615476 1.961749 18.307222 -36.808061 -7.181121 -151.289005 24.324958 179.616368 -153.125471 6.149982 177.244706 -29.031419 -35.390525 -27.269469 -150.34961 -5.301366 -148.467591 141.785267 39.038903 -149.034553 40.751476 11.001433 -7.231502 -1.87463 -5.429366 62.263687 -124.567853 -51.616359 -120.368936 2.333174 1.986803 3.858514 -23.827247 -38.112041 8.068104 161.381067 -26.155638 -121.274593 -11.7512 -20.239061 3.18112 -134.359467 -75.904234 -102.259436 -11.070167 -42.228087 -10.997995 -2.066195 6.805601 0.15719 157.916543 -14.242158 -174.882278 179.867201 52.911352 136.093377 151.29189 33.278176 159.794913 162.234666 76.147147 20.185948 101.739596 71.638236 29.039933 -34.676159 33.073631 -156.454044 -29.360961 24.013689 -165.575933 -105.865367 74.573197 -59.330403 -156.380923 7.471189 -31.718873 -74.13393 49.102721 13.695399 3.428252 2.721551 57.38079
-14.9159 50.7364 32.139 -159.616283 -41.151124 171.388751 9.218771 7.693401 34.689922 1.758431 -7.589853 -31.688735 -12.943395 18.150649 -51.715619 34.086901 0.635356 74.455516 -10.560246 0.772217 -8.341128 -4.019446 -0.404106 11.477562 -165.785788 -75.4067 167.12558 -48.305464 3.02138 -19.729774 25.963587 -41.851546 -130.627877 -146.934948 35.077924 128.938004 3.604038 1.667165 -0.967346 -77.27659 22.214248 74.631169 -39.382274 37.298472 28.621662 -0.57463 12.598406 3.337425 5.492893 -17.983224 -5.004709 -177.782921 -70.984192 145.590844 -3.51319 24.114696 0.773636 6.437147 27.919727 0.501058 -111.210704 -37.802316 -105.800129 -141.732 35.963192 -159.563905 154.937254 -65.732558 -176.433288 -64.164834 44.568721 50.746948 -160.778471 -41.50409 -102.081586 -147.892094 -32.978685 -142.661506 -3.809356 -4.673817 5.052465 162.158327 -58.313407 -110.670861 158.282929 -22.933912 -122.767944 11.796518 19.12848 0.113055 -43.883637 -68.148123 -18.778096 173.11431 18.239617 -139.091688 8.846786 -42.893344 21.514923 152.988343 -20.698594 -175.452694 159.607358 15.083191 133.203816 156.126899 9.171878 146.319521 153.975298 75.634403 27.880626 103.816392 72.950572 -13.964038 -48.03085 0.594446 -91.874153 -146.721993 25.782649 -145.403803 6.546695 -7.93731 3.663804 64.748481 -52.73542 109.097162 84.116289 31.615294 8.659734 -10.59305 52.935834 -81.197871
-15.2501 50.6019 32.339 -159.525369 -41.164664 171.27896 12.918006 6.164762 -77.875588 3.97342 1.168296 80.829226 -12.497532 17.924264 -48.696992 33.743789 -1.431025 71.638718 -8.942237 0.523454 -6.686696 -2.190873 -0.192553 10.044287 11.069899 -60.856143 -6.035483 -41.039082 -16.416863 -56.352661 178.563663 30.12421 -68.6255 -13.325468 -20.754675 -2.770524 -24.66639 24.62598 10.623792 -44.917669 14.062315 52.162102 6.089218 -10.556 -4.996248 -21.305163 35.560137 19.270507 -5.752896 19.614958 2.525678 -120.214863 55.744053 118.006643 -5.208025 -8.42668 -9.226367 6.794769 18.530373 1.760623 176.333828 74.294955 -132.740542 -157.587953 34.173693 -134.725275 2.852467 21.826297 -5.559748 18.983088 32.582014 -70.239918 57.171701 -76.047853 33.725063 -0.684187 42.976059 -5.639809 156.165359 8.229104 -92.295731 -9.179807 -51.923102 -10.73932 -47.223933 -68.808715 -6.516649 8.400779 38.224603 0.435811 -4.336496 -9.483144 -3.224238 138.39132 76.315946 -124.395365 -0.457115 21.880886 -3.475011 -9.740016 3.474537 -1.642784 157.116482 10.390388 131.488973 174.365752 79.085236 152.797621 128.454826 69.650724 46.012526 120.536968 79.334061 10.440624 -30.09162 21.826034 116.647443 -166.185466 -8.948578 89.924455 113.8154 75.920975 57.538516 -128.041568 -7.420714 -80.626584 -86.423459 28.657433 -164.44727 -150.778186 -4.192376 105.992147
